<svg width="27" height="21" viewBox="0 0 27 21" fill="none" xmlns="http://www.w3.org/2000/svg">
<g clip-path="url(#clip0_1_27)">
<path d="M4.18821 20.7586H23.0108C24.063 20.7586 24.8794 20.4534 25.4601 19.8431C26.0407 19.2326 26.3311 18.317 26.3311 17.0963V4.05346C26.3311 2.84054 26.0251 1.92888 25.4133 1.31849C24.8015 0.708091 23.8837 0.402893 22.6601 0.402893H3.83747C2.78528 0.402893 1.96885 0.708091 1.3882 1.31849C0.80754 1.92888 0.517212 2.84054 0.517212 4.05346V17.0963C0.517212 18.317 0.823128 19.2326 1.43496 19.8431C2.04679 20.4534 2.96454 20.7586 4.18821 20.7586ZM4.11805 18.9511C3.5335 18.9511 3.08535 18.7955 2.77359 18.4844C2.46182 18.1733 2.30594 17.7106 2.30594 17.0963V4.05346C2.30594 3.447 2.46182 2.98822 2.77359 2.67711C3.08535 2.366 3.5335 2.21045 4.11805 2.21045H22.7302C23.3069 2.21045 23.7532 2.366 24.0689 2.67711C24.3845 2.98822 24.5424 3.45094 24.5424 4.06528V17.108C24.5424 17.7145 24.3845 18.1733 24.0689 18.4844C23.7532 18.7955 23.3069 18.9511 22.7302 18.9511H4.11805ZM13.4475 13.7293C13.8606 13.7293 14.2659 13.6387 14.6634 13.4574C15.0609 13.2763 15.4662 12.981 15.8792 12.5714L25.3724 3.14377L24.1565 1.90329L14.8621 11.1774C14.605 11.4294 14.3614 11.6145 14.1315 11.7326C13.9015 11.8508 13.6736 11.9098 13.4475 11.9098C13.2137 11.9098 12.9818 11.8488 12.7519 11.7267C12.522 11.6046 12.2823 11.4215 12.0329 11.1774L2.69175 1.85603L1.46419 3.09651L11.0158 12.5714C11.4211 12.981 11.8244 13.2763 12.2258 13.4574C12.6272 13.6387 13.0344 13.7293 13.4475 13.7293ZM24.0396 19.211L25.2555 17.9705L17.6914 10.4213L16.4755 11.6499L24.0396 19.211ZM1.62786 17.9823L2.84373 19.2228L10.4195 11.6499L9.19197 10.4213L1.62786 17.9823Z" fill="#3D214E"/>
</g>
<defs>
<clipPath id="clip0_1_27">
<rect width="25.8138" height="20.3793" fill="white" transform="translate(0.517212 0.379272)"/>
</clipPath>
</defs>
</svg>
