<svg width="23" height="23" viewBox="0 0 23 23" fill="none" xmlns="http://www.w3.org/2000/svg">
<g clip-path="url(#clip0_1_21)">
<path d="M11.3793 2.05112C14.4176 2.05112 14.7779 2.0625 15.9784 2.1175C19.0622 2.25784 20.5027 3.72103 20.643 6.78207C20.698 7.98164 20.7084 8.34198 20.7084 11.3803C20.7084 14.4195 20.6971 14.7789 20.643 15.9784C20.5017 19.0366 19.0651 20.5027 15.9784 20.643C14.7779 20.698 14.4195 20.7094 11.3793 20.7094C8.34103 20.7094 7.98069 20.698 6.78112 20.643C3.68974 20.5017 2.2569 19.0319 2.11655 15.9775C2.06155 14.7779 2.05017 14.4185 2.05017 11.3793C2.05017 8.34103 2.0625 7.98164 2.11655 6.78112C2.25784 3.72103 3.69448 2.2569 6.78112 2.11655C7.98164 2.0625 8.34103 2.05112 11.3793 2.05112ZM11.3793 0C8.28888 0 7.90198 0.0132759 6.68819 0.0682759C2.5556 0.257931 0.258879 2.55086 0.0692241 6.68724C0.0132759 7.90198 0 8.28888 0 11.3793C0 14.4697 0.0132759 14.8576 0.0682759 16.0714C0.257931 20.204 2.55086 22.5007 6.68724 22.6903C7.90198 22.7453 8.28888 22.7586 11.3793 22.7586C14.4697 22.7586 14.8576 22.7453 16.0714 22.6903C20.2002 22.5007 22.5026 20.2078 22.6894 16.0714C22.7453 14.8576 22.7586 14.4697 22.7586 11.3793C22.7586 8.28888 22.7453 7.90198 22.6903 6.68819C22.5045 2.5594 20.2087 0.258879 16.0723 0.0692241C14.8576 0.0132759 14.4697 0 11.3793 0ZM11.3793 5.53603C8.15233 5.53603 5.53603 8.15233 5.53603 11.3793C5.53603 14.6063 8.15233 17.2235 11.3793 17.2235C14.6063 17.2235 17.2226 14.6072 17.2226 11.3793C17.2226 8.15233 14.6063 5.53603 11.3793 5.53603ZM11.3793 15.1724C9.28457 15.1724 7.58621 13.475 7.58621 11.3793C7.58621 9.28457 9.28457 7.58621 11.3793 7.58621C13.4741 7.58621 15.1724 9.28457 15.1724 11.3793C15.1724 13.475 13.4741 15.1724 11.3793 15.1724ZM17.454 3.94009C16.6991 3.94009 16.0875 4.55172 16.0875 5.3056C16.0875 6.05948 16.6991 6.67112 17.454 6.67112C18.2078 6.67112 18.8185 6.05948 18.8185 5.3056C18.8185 4.55172 18.2078 3.94009 17.454 3.94009Z" fill="#3D214E"/>
</g>
<defs>
<clipPath id="clip0_1_21">
<rect width="22.7586" height="22.7586" fill="white"/>
</clipPath>
</defs>
</svg>
