<svg width="24" height="23" viewBox="0 0 24 23" fill="none" xmlns="http://www.w3.org/2000/svg">
<g clip-path="url(#clip0_1_23)">
<path d="M17.6763 22.7586C18.6924 22.7586 19.5573 22.6135 20.271 22.3234C20.9846 22.0333 21.6362 21.5555 22.2257 20.89C22.2722 20.8436 22.3168 20.7953 22.3595 20.7451C22.4021 20.6948 22.4467 20.6464 22.4933 20.6C22.8423 20.2131 23.1002 19.8282 23.267 19.4452C23.4338 19.0622 23.5172 18.6889 23.5172 18.3252C23.5172 17.9074 23.3931 17.5032 23.1449 17.1124C22.8967 16.7217 22.5127 16.3484 21.993 15.9925L18.6071 13.6482C18.0874 13.2923 17.5386 13.1105 16.9607 13.1027C16.3828 13.095 15.8496 13.3309 15.3609 13.8107L14.4649 14.7042C14.3331 14.8358 14.207 14.9094 14.0868 14.9248C13.9666 14.9402 13.8405 14.9054 13.7086 14.8203C13.4992 14.6888 13.2336 14.4915 12.9116 14.2285C12.5897 13.9654 12.2542 13.6772 11.9052 13.3638C11.5561 13.0505 11.2381 12.7507 10.9511 12.4644C10.6486 12.1626 10.3558 11.857 10.0726 11.5476C9.78951 11.2381 9.52966 10.9383 9.29308 10.6481C9.05649 10.358 8.86062 10.0891 8.70549 9.84153C8.62793 9.71 8.5969 9.58427 8.61241 9.46435C8.62793 9.34443 8.70161 9.2187 8.83347 9.08716L9.71776 8.19353C10.2064 7.7061 10.4469 7.17418 10.4391 6.59777C10.4314 6.02135 10.2491 5.47395 9.89229 4.95557L7.54196 1.57833C7.1774 1.05995 6.80119 0.6789 6.41334 0.435182C6.0255 0.191464 5.62214 0.0657368 5.20328 0.0579997C4.46637 0.0425256 3.7062 0.382957 2.92277 1.07929C2.87622 1.12572 2.82774 1.17021 2.77733 1.21276C2.72691 1.25531 2.67843 1.29593 2.63189 1.33462C1.97255 1.92263 1.49551 2.57255 1.20075 3.28436C0.905986 3.99617 0.758606 4.85499 0.758606 5.86081C0.758606 6.9672 0.981615 8.13937 1.42763 9.3773C1.87365 10.6152 2.52911 11.8783 3.39399 13.1665C4.25888 14.4548 5.31575 15.7217 6.56461 16.9673C7.81345 18.2053 9.0817 19.2556 10.3693 20.1183C11.657 20.981 12.9194 21.6367 14.1566 22.0855C15.3938 22.5342 16.567 22.7586 17.6763 22.7586ZM17.6879 20.9713C16.7028 20.9945 15.644 20.7779 14.5115 20.3214C13.379 19.8649 12.2465 19.2401 11.114 18.4471C9.98149 17.6541 8.91104 16.7585 7.90265 15.7604C6.89426 14.7546 5.9809 13.6733 5.16255 12.5166C4.34421 11.3599 3.69845 10.2071 3.22528 9.05815C2.75211 7.9092 2.52329 6.84342 2.5388 5.86081C2.55431 5.21863 2.67455 4.62867 2.8995 4.09095C3.12445 3.55322 3.46575 3.08706 3.9234 2.69247C3.96218 2.65379 3.99903 2.62091 4.03393 2.59383C4.06884 2.56675 4.10569 2.53774 4.14447 2.50679C4.31512 2.35978 4.49158 2.24566 4.67387 2.16442C4.85615 2.08318 5.03262 2.04256 5.20328 2.04256C5.57561 2.04256 5.86261 2.20117 6.06428 2.51839L8.32153 5.89563C8.44564 6.08131 8.50575 6.27087 8.50187 6.46429C8.49799 6.65772 8.40685 6.84341 8.22844 7.02136L7.20455 8.04266C6.80118 8.43725 6.5995 8.86472 6.5995 9.32508C6.5995 9.78544 6.74689 10.209 7.04165 10.5959C7.37519 11.0446 7.79794 11.5591 8.30989 12.1394C8.82184 12.7197 9.30277 13.2304 9.75267 13.6714C10.0474 13.9654 10.3868 14.2884 10.7707 14.6404C11.1547 14.9925 11.5387 15.3329 11.9226 15.6617C12.3066 15.9906 12.6499 16.2672 12.9524 16.4916C13.3402 16.7779 13.763 16.9229 14.2206 16.9268C14.6782 16.9306 15.1088 16.7313 15.5121 16.329L16.536 15.3078C16.7144 15.1221 16.9006 15.0293 17.0945 15.0293C17.2884 15.0293 17.4785 15.0873 17.6647 15.2034L21.0504 17.4548C21.2211 17.5709 21.3433 17.7024 21.4171 17.8494C21.4907 17.9964 21.5275 18.155 21.5275 18.3252C21.5275 18.6734 21.3724 19.0255 21.0621 19.3814C21.0311 19.42 21.0021 19.4568 20.9749 19.4916C20.9477 19.5264 20.9148 19.5631 20.876 19.6018C20.4804 20.0583 20.0111 20.3988 19.4681 20.6231C18.9251 20.8475 18.3317 20.9636 17.6879 20.9713Z" fill="#3D214E"/>
</g>
<defs>
<clipPath id="clip0_1_23">
<rect width="22.7586" height="22.7586" fill="white" transform="translate(0.758606)"/>
</clipPath>
</defs>
</svg>
